<svg xmlns="http://www.w3.org/2000/svg" viewBox="0 0 775 538" width="775" height="538">
	<style>
		tspan { white-space:pre }
		.shp0 { fill: #401f0f } 
		.shp1 { fill: #0d9710 } 
		.shp2 { fill: #f00000 } 
		.shp3 { fill: #ffffff } 
		.shp4 { fill: #c8c8c8 } 
	</style>
	<g id="Layer">
		<g id="Layer">
			<g id="Layer">
				<g id="Layer">
					<path id="Layer" fill-rule="evenodd" class="shp0" d="M588.13 370.31C585.4 370.31 582.77 369.4 580.27 367.57C576.97 365.2 575.69 362.54 575.19 360.74C574.92 359.7 574.42 357.09 575.86 355.22C577.02 353.69 579.21 352.92 582.37 352.92C584.58 352.92 586.99 353.68 589.52 355.16C593.24 357.35 594.62 360.07 595.14 361.96C595.59 363.6 595.64 366 593.44 368.08C591.91 369.58 590.11 370.31 588.13 370.31ZM272.56 336.44C272.56 339.87 263.83 343.4 232.04 343.4C228.26 343.4 223.23 342.95 217.75 342.41C216.03 342.24 214.48 343.46 214.23 345.17C212.84 354.7 211.22 363.31 209.44 371.08C208.96 373.16 210.59 375.11 212.72 375.03C215.04 374.95 217.46 374.9 219.99 374.9C226.87 374.9 229.93 376.93 229.93 380.05C229.93 381.96 226.02 387.91 221.87 387.91C220.02 387.91 215 387.1 212.38 387.1C210.69 387.1 209.06 387.12 207.49 387.15C206.1 387.18 204.9 388.09 204.48 389.42C189.07 438.03 167.03 442.55 163.98 442.55C161.75 442.55 160.58 441.84 160.58 439.95C160.58 437.5 164.99 435.56 168.3 432.42C173.32 427.66 181.9 417.13 189.09 392.97C189.76 390.71 187.86 388.5 185.53 388.84C179.01 389.78 175.43 390.75 174.02 390.75C171.92 390.75 170.03 389.77 170.03 387.6C170.03 384.73 176.76 380.16 191.07 377.35C192.34 377.1 193.34 376.11 193.6 374.85C195.43 365.99 197.05 355.84 198.35 344.21C198.56 342.32 197.11 340.66 195.21 340.61C194.32 340.58 193.45 340.57 192.6 340.57C174.59 340.57 167.95 347.07 167.95 352.87C167.95 356.66 170.31 359.92 173.28 359.92C175.79 359.92 176.48 359.75 178.12 359.67C180.62 359.55 181.55 361.47 181.55 362.61C181.55 365.63 177.44 368.25 170.98 368.25C162.01 368.25 153.58 362.45 153.58 353.48C153.58 343.26 163.71 329.21 192.67 329.21C210 329.21 224.15 333.89 250.19 333.89C259.21 333.89 265.59 332.55 267.88 332.55C270.18 332.55 272.58 333.49 272.56 336.44ZM264.18 370.31C261.44 370.31 258.81 369.41 256.31 367.57C253.03 365.19 251.74 362.54 251.25 360.74C250.98 359.7 250.48 357.09 251.92 355.22C253.08 353.69 255.28 352.92 258.43 352.92C260.65 352.92 263.06 353.69 265.58 355.16C269.3 357.35 270.69 360.07 271.21 361.96C271.65 363.6 271.72 366 269.51 368.08C267.95 369.58 266.16 370.31 264.18 370.31ZM605.55 404.37C605.55 413.85 586.2 436.78 573.99 436.78C569.96 436.78 562.64 434.5 558.56 427.02C557.23 424.58 553.92 424.16 551.87 426.04C546.23 431.22 537.55 437.18 527.64 437.18C517.83 437.18 511.19 432.06 507.64 425.88C506.27 423.49 503.02 422.99 501.04 424.91C495.48 430.31 486.26 437.18 475.62 437.18C463.05 437.18 455.69 428.76 453.36 420.5L452.65 421.63C450.14 425.95 442.29 434.8 436.32 436.31C435.15 436.61 433.99 436.74 432.82 436.74C429.82 436.74 426.87 435.76 424.29 433.89C421.19 431.63 418.81 428.23 417.83 424.56C417.52 423.42 417.28 422.24 417.12 420.96L416.9 419.42L411.23 427.57C411.15 427.69 411.06 427.81 410.96 427.92C406.3 433.5 400.05 436.82 394.22 436.82C389.58 436.82 384.37 433.43 381.08 427.39C379.68 424.82 376.2 424.34 374.22 426.5C370.03 431.07 364.13 435.69 356.87 436.63C356.5 436.68 356.08 436.71 355.62 436.71C350.11 436.71 339.65 432.82 339.39 418.17C339.28 411.46 342.4 403.27 344.68 397.3C345.36 395.53 345.96 393.93 346.41 392.59L346.64 391.93L345.95 391.81C338.93 390.51 336.48 383.85 336.16 382.91C336.13 382.83 336.11 382.75 336.09 382.67L335.8 381.63C332.89 385.98 329.27 389.28 325.34 391.29C324.08 391.94 323.2 393.12 323.02 394.53C322.41 399.25 320.85 404.39 318.31 409.83C310.71 426.16 300.76 435.15 290.32 435.15C288.43 435.15 286.49 434.88 284.57 434.3C279.27 432.75 275.21 430.66 272.32 428C270.68 426.49 268.18 426.47 266.54 427.98C261.03 433.05 254.95 436.79 250.02 436.79C244.21 436.79 231.63 432.07 231.63 413.94C231.63 405.24 235.24 392.23 239.36 383.8C242.89 376.59 246.8 374.92 248.99 374.67C249.19 374.65 249.39 374.64 249.59 374.65C251.2 374.72 253 375.28 255.21 376.4C258.17 377.9 259.83 379.66 260.37 381.55C260.77 382.97 260.34 383.94 259.77 385.02C258.35 387.75 245.25 412.19 245.25 422.6C245.25 426.5 247.63 426.76 248.89 426.76C253.92 426.76 260.69 420.21 266.07 413.49C266.58 412.85 266.87 412.08 266.96 411.27C267.41 407.42 268.61 403.12 270.56 398.39C276.76 383.46 289.33 367.37 302.38 367.37C303.84 367.37 305.29 367.57 306.69 367.99C313.49 369.97 318.67 374.26 321.28 380.05C321.65 380.87 321.96 381.72 322.23 382.6C326.08 380.6 329.48 376.1 332.09 369.38C332.21 369.08 332.29 368.75 332.33 368.42C333.24 362.05 335.69 358.97 339.83 358.97C344.12 358.97 347.52 361.54 348.66 365.73C349.43 368.58 348.81 371.94 346.67 376.27C345.76 378.16 345.15 379.41 344.77 380.23L344.45 380.92L345.22 381.05C345.46 381.12 345.82 381.22 346.36 381.22C347.84 381.22 349.64 380.59 351.71 379.38C351.85 379.3 352 379.2 352.13 379.1L353.13 378.36C355.33 375.64 357.57 374.3 360.06 374.15C361.73 374.15 363.56 374.69 365.99 375.9C367.68 376.74 368.8 377.94 369.28 379.45C370.24 382.51 368.45 385.9 368.43 385.93C368.19 386.42 367.83 387.05 367.32 387.89C365.9 390.28 363.52 394.29 359.97 401.79C353.61 415.23 351.5 423.2 353.71 425.48C354.23 426.03 354.97 426.81 356.76 426.81C357.39 426.81 358.11 426.71 358.93 426.51C366.41 424.73 376.11 409.4 379.56 402.27L379.56 402.28C381.84 394.41 386.01 386.05 390.42 378.55C392.7 374.65 396.41 372.16 400.68 372.16C405.84 372.16 408.55 375.43 409.38 378.49C409.69 379.58 409.81 381.23 408.72 382.81C405.5 386.95 401.87 393.81 397.96 403.19C393.17 414.49 391.46 420.7 392.1 424.63C392.2 425.26 392.54 425.82 393.01 426.11C393.62 426.42 394.25 426.56 394.89 426.56C399.72 426.56 405.43 418.01 409.21 412.32L409.46 411.98C411.96 408.22 417.16 398.11 421.07 390.27C429.42 373.86 433.32 371.65 436.03 371.65C443.61 371.65 446.46 376.98 447.33 379.26C447.98 380.95 448.02 382.85 442.81 392.13C438.41 400.43 435.47 406.42 434.04 409.92C431.6 416.09 430.62 420.69 431.13 423.62C431.28 424.49 431.61 424.79 432.08 425.22C432.36 425.43 432.84 425.72 433.63 425.72C436.64 425.72 443.64 420.11 455.68 399.27L455.68 399.33C461.18 384.9 473.23 371.63 486.04 371.63C494.86 371.63 501.79 378.8 501.79 386.64C501.79 392.21 500.16 398.27 493.1 398.27C488.36 398.27 485.88 396.01 484.84 393.2C483.75 390.25 480.08 389.3 477.9 391.56C472.59 397.05 466.65 406 466.65 416.44C466.65 423.24 470.66 427.69 476.46 427.69C490.47 427.69 504.27 408.16 506.02 404.38C506.02 404.4 506.02 404.42 506.02 404.44C510.36 388.19 523.75 371.62 538.05 371.62C546.88 371.62 553.79 378.79 553.79 386.63C553.79 392.2 552.17 398.26 545.1 398.26C540.36 398.26 537.89 396 536.85 393.19C535.76 390.24 532.09 389.28 529.9 391.54C524.59 397.03 518.65 405.98 518.65 416.43C518.65 423.23 522.68 427.68 528.47 427.68C539.8 427.68 550.8 414.64 555.55 408.04C555.94 407.5 556.19 406.9 556.29 406.24C557.54 398.62 560.29 389.95 563.33 383.76C566.85 376.54 570.76 374.88 572.96 374.63C573.16 374.61 573.36 374.6 573.56 374.61C575.15 374.68 576.96 375.24 579.17 376.36C582.14 377.86 583.81 379.62 584.34 381.51C584.74 382.93 584.29 383.9 583.72 384.98C582.32 387.71 569.2 412.15 569.2 422.56C569.2 426.46 571.6 426.72 572.85 426.72C580.82 426.72 593.21 410.21 597.4 402.75C598.54 400.74 600.06 400.24 600.78 400.24C602.67 400.27 605.55 401.61 605.55 404.37ZM311.6 394.21C311.58 393.76 311.55 393.32 311.51 392.9C307.49 391.77 303.58 389.18 300.16 384.9L299.75 385.09C297.46 386.16 292.96 389.28 288.58 398.07C283.89 407.47 282.79 415.93 283.8 420.13C284.56 423.27 286.4 425.05 289 425.11C289.29 425.19 289.65 425.23 290.04 425.23C293.4 425.23 299.53 421.41 305.76 410.61C310.84 401.71 311.73 396.83 311.6 394.21Z" />
					<path id="Layer" class="shp0" d="M615.14 116.92C534.62 101.17 456.74 93.18 383.64 93.18C306.41 93.18 228.41 103.07 151.8 118.19C97.76 128.87 48 147.46 48 147.46L120.16 419.7L131.03 419.13C137.47 418.76 144.25 418.38 151.33 418C152.47 417.94 153.36 417 153.36 415.87L153.36 409.07C153.36 407.85 152.33 406.87 151.1 406.93C143.02 407.36 135.34 407.79 128.1 408.22L61.21 154.82C75.04 150.5 106.29 138.47 153.95 129.06C229.85 114.07 307.13 104.26 383.64 104.26C456.02 104.26 533.2 112.18 613.01 127.79C663.59 137.68 698.32 150.17 713.41 154.6L647.74 409.62C640.5 409.14 632.84 408.64 624.8 408.15C623.57 408.08 622.53 409.05 622.53 410.28L622.53 417.66C622.53 418.8 623.42 419.73 624.56 419.79C644.24 420.83 656.35 421.55 656.35 421.55L726.66 147.7C726.67 147.7 672.05 128.05 615.14 116.92Z" />
					<g id="Layer">
						<path id="Layer" class="shp0" d="M176.46 152.46C196 148.93 211.55 152.37 227.03 162.08C229.07 163.33 229.49 165.67 228.21 167.52L215.83 186.1C214.71 187.71 212.56 188.1 210.95 186.98C202.56 181.84 192.35 180.05 182.77 181.78C160.69 185.77 147.8 207.07 151.75 228.95C155.67 250.64 175.33 265.64 197.41 261.65C206.59 259.99 215.96 254.87 221.9 247.54C223.06 246.12 225.6 245.66 227.02 246.82L245.19 260.28C246.8 261.4 247.07 263.98 245.95 265.59C235 280.89 219.29 289.98 201.9 293.12C162.82 300.18 125.75 274.81 118.69 235.73C111.62 196.67 137.39 159.52 176.46 152.46Z" />
						<path id="Layer" fill-rule="evenodd" class="shp0" d="M265.46 274.79L319.89 137.84C320.42 136.62 321.75 135.55 323.13 135.47L325.11 135.36C326.5 135.28 327.94 136.19 328.6 137.35L398.26 267.22C399.6 269.73 398.16 272.4 395.18 272.57L373.18 273.83C369.61 274.03 367.96 272.94 365.96 269.27L357.94 254L304.02 257.08L297.79 273.35C296.93 275.79 294.89 278.29 290.93 278.51L269.13 279.75C266.15 279.93 264.41 277.44 265.46 274.79ZM344.51 227.72L327.58 195.87L327.38 195.88L314.38 229.44L344.51 227.72Z" />
						<path id="Layer" class="shp0" d="M418.95 255.27L429.42 239.49C431.19 237.03 434.92 237.69 436.24 238.78C437 239.23 450.52 250.74 463.6 251.66C471.52 252.22 477.62 247.67 478.11 240.74C478.7 232.42 472.21 225.59 459.12 219.29C442.56 211.35 422.11 196.57 423.79 172.8C425.18 153.19 441.83 134.46 472.33 136.62C492.93 138.08 508.03 149.7 513.67 154.47C515.95 156.02 515.3 159.56 514.41 160.89L503.23 175.43C501.69 177.51 498 179.04 496.31 177.53C494.6 176.41 480.91 164.5 468.83 163.64C461.7 163.14 456.01 167.51 455.64 172.86C455.12 180.19 460.67 186.15 475.87 193.6C490.89 200.83 514.59 214.65 512.69 241.59C511.25 261.99 492.16 281.34 463.05 279.28C437.3 277.46 423.8 265.75 419.56 260.88C417.7 258.76 417.17 257.93 418.95 255.27Z" />
						<path id="Layer" fill-rule="evenodd" class="shp0" d="M528.54 276.74L613.5 156.32C614.3 155.25 615.84 154.53 617.21 154.77L619.16 155.12C620.53 155.37 621.72 156.59 622.09 157.87L659.44 300.43C660.15 303.18 658.13 305.44 655.2 304.91L633.51 300.98C629.99 300.34 628.64 298.89 627.56 294.86L623.32 278.15L570.18 268.53L560.32 282.89C558.92 285.06 556.34 287.01 552.44 286.31L530.95 282.42C528.01 281.89 526.91 279.07 528.54 276.74ZM616.41 249.47L607.4 214.54L607.2 214.5L586.71 244.09L616.41 249.47Z" />
					</g>
					<path id="Layer" class="shp1" d="M178.31 76.29C132.69 92.82 89.13 114.63 47 138.58C117.2 111.28 190.06 92.77 263.88 82.95C270.25 82.1 276.63 81.34 283.02 80.62L273.89 51.13C241.38 56.78 209.36 65.05 178.31 76.29Z" />
					<path id="Layer" class="shp2" d="M727.67 138.58C685.54 114.63 641.98 92.82 596.36 76.29C567.59 65.87 537.98 57.99 507.93 52.39L502.28 81.88C505.12 82.23 507.96 82.56 510.79 82.94C584.61 92.77 657.46 111.29 727.67 138.58Z" />
					<path id="Layer" class="shp3" d="M502.17 81.73C464.12 77.02 425.49 74.58 387.34 74.48C352.73 74.57 317.67 76.59 283.12 80.47L274.07 51.24C310.17 44.98 347.9 41.8 386.21 41.8L388.49 41.8C429.45 41.8 469.58 45.4 507.78 52.5L502.17 81.73Z" />
					<path id="Layer" fill-rule="evenodd" class="shp4" d="M507.92 52.4L502.28 81.89C464.12 77.17 425.73 74.73 387.33 74.63C352.49 74.72 317.66 76.73 283.01 80.63L273.88 51.14C310.92 44.7 348.6 41.67 386.2 41.67C386.58 41.67 386.95 41.67 387.33 41.67C387.71 41.67 388.09 41.67 388.47 41.67C428.49 41.67 468.59 45.07 507.92 52.4ZM387.34 41.96L386.21 41.96C347.96 41.96 310.3 45.12 274.25 51.37L283.22 80.33C317.74 76.45 352.76 74.44 387.34 74.35C425.46 74.45 464.05 76.88 502.06 81.58L507.6 52.62C469.45 45.54 429.37 41.95 388.47 41.95L387.34 41.96Z" />
					<g id="Layer">
						<path id="Layer" fill-rule="evenodd" class="shp0" d="M307.49 495.1C308.57 495.1 309.32 494.8 309.73 494.2C310.14 493.6 310.35 492.57 310.35 491.08L310.35 475.33C310.35 473.82 310.14 472.78 309.73 472.18C309.32 471.59 308.57 471.3 307.49 471.3L307.49 470.57L319.17 470.57C323.49 470.57 326.94 471.79 329.53 474.24C332.12 476.7 333.41 479.82 333.41 483.61C333.41 487.33 332.18 490.29 329.73 492.5C327.28 494.71 323.86 495.82 319.49 495.82L307.49 495.82L307.49 495.1ZM318.49 471.54L313.69 471.54L313.69 490.19C313.69 491.99 313.91 493.21 314.34 493.87C314.77 494.53 315.63 494.86 316.92 494.86L319.53 494.86C322.63 494.86 325.07 493.86 326.85 491.85C328.63 489.85 329.52 487.12 329.52 483.67C329.52 479.99 328.55 477.05 326.6 474.85C324.65 472.65 321.95 471.54 318.49 471.54Z" />
						<path id="Layer" fill-rule="evenodd" class="shp0" d="M349.89 495.1C351.34 495.1 352.06 494.59 352.06 493.59C352.06 493.3 351.99 492.98 351.87 492.62L349.52 485.61L341.41 485.61L339.69 490.68C339.26 491.96 339.04 492.89 339.04 493.47C339.04 494.53 339.71 495.08 341.04 495.11L341.04 495.84L334.52 495.84L334.52 495.11C335.45 494.98 336.18 494.67 336.7 494.17C337.22 493.69 337.74 492.67 338.27 491.13L345.26 470.29L347.86 470.29L355.19 492.06C355.62 493.34 356.07 494.16 356.54 494.54C357.01 494.91 357.76 495.1 358.79 495.1L358.79 495.83L349.89 495.83L349.89 495.1ZM341.88 484.05L349 484.05L345.42 473.35L341.88 484.05Z" />
						<path id="Layer" class="shp0" d="M380.75 490.32L381.5 490.32L379.95 495.83L361.65 495.83L361.65 495.1C362.68 495.1 363.42 494.78 363.86 494.13C364.3 493.48 364.52 492.39 364.52 490.87L364.52 474.97C364.52 473.6 364.32 472.65 363.91 472.11C363.5 471.57 362.75 471.3 361.66 471.3L361.66 470.57L370.7 470.57L370.7 471.3C369.69 471.3 368.97 471.61 368.54 472.23C368.1 472.84 367.88 473.87 367.88 475.29L367.88 492.17C367.88 493.11 368.08 493.74 368.47 494.09C368.86 494.43 369.62 494.6 370.74 494.6L375.76 494.6C377.31 494.6 378.39 494.34 379.01 493.8C379.62 493.26 380.2 492.1 380.75 490.32Z" />
						<path id="Layer" class="shp0" d="M400.6 492.39L400.6 475.06C400.6 474.47 400.48 474.18 400.23 474.18C400.18 474.18 399.99 474.24 399.67 474.35C398.57 474.78 397.61 475.02 396.81 475.06L396.81 474.33C400.03 472.63 402.01 471.2 402.75 470.04L403.51 470.04L403.51 492.39C403.51 493.55 403.67 494.31 404 494.65C404.32 495 405.03 495.16 406.12 495.16L406.12 495.83L398 495.83L398 495.16C399.09 495.16 399.79 494.99 400.12 494.62C400.44 494.27 400.6 493.52 400.6 492.39Z" />
						<path id="Layer" fill-rule="evenodd" class="shp0" d="M426.3 489.52C426.3 491.43 425.59 493.04 424.16 494.36C422.72 495.67 420.95 496.33 418.86 496.33C416.73 496.33 415 495.75 413.65 494.59C412.3 493.44 411.63 491.95 411.63 490.14C411.63 488.76 412.06 487.53 412.92 486.43C413.78 485.34 415.19 484.25 417.14 483.15C415.59 482.35 414.4 481.35 413.58 480.15C412.75 478.95 412.34 477.63 412.34 476.2C412.34 474.35 412.97 472.84 414.22 471.68C415.48 470.51 417.11 469.93 419.13 469.93C421.01 469.93 422.57 470.48 423.82 471.58C425.07 472.68 425.69 474.05 425.69 475.71C425.69 478.14 424.23 480.15 421.32 481.76C424.64 484.07 426.3 486.66 426.3 489.52ZM414.08 489.61C414.08 491.16 414.57 492.46 415.53 493.5C416.5 494.56 417.71 495.08 419.16 495.08C420.47 495.08 421.56 494.67 422.42 493.84C423.28 493.02 423.71 491.97 423.71 490.71C423.71 488.22 421.79 485.96 417.95 483.92C415.37 485.13 414.08 487.02 414.08 489.61ZM414.71 474.79C414.71 475.9 415.15 476.94 416.04 477.93C416.93 478.91 418.42 480.01 420.52 481.24C422.44 480.25 423.41 478.59 423.41 476.26C423.41 474.67 422.98 473.38 422.13 472.39C421.29 471.41 420.18 470.92 418.81 470.92C417.64 470.92 416.65 471.28 415.87 472.03C415.09 472.77 414.71 473.69 414.71 474.79Z" />
						<path id="Layer" class="shp0" d="M444.53 472.94L435.03 472.94L434.77 481.91C435.48 481.81 436.14 481.75 436.77 481.75C439.2 481.75 441.14 482.43 442.58 483.78C444.02 485.13 444.75 486.8 444.75 488.81C444.75 490.96 444.01 492.75 442.55 494.18C441.08 495.61 439.25 496.33 437.04 496.33C434.25 496.33 431.97 495.12 430.19 492.71L430.86 492.29C432.23 493.98 433.86 494.81 435.75 494.81C437.38 494.81 438.73 494.27 439.83 493.2C440.93 492.12 441.48 490.8 441.48 489.21C441.48 487.64 440.91 486.34 439.77 485.35C438.63 484.35 437.08 483.86 435.11 483.86C434.58 483.86 434.02 483.9 433.44 483.97L433.82 470.58L444.55 470.58L444.55 472.94L444.53 472.94Z" />
						<path id="Layer" fill-rule="evenodd" class="shp0" d="M467.18 483.13C467.18 485.71 466.8 487.99 466.06 489.96C465.32 491.94 464.25 493.49 462.87 494.62C461.49 495.76 460.02 496.33 458.45 496.33C456.86 496.33 455.37 495.76 453.99 494.62C452.6 493.49 451.53 491.93 450.79 489.94C450.04 487.95 449.67 485.65 449.67 483.03C449.67 480.49 450.05 478.24 450.8 476.27C451.55 474.31 452.61 472.76 454 471.63C455.38 470.5 456.86 469.94 458.45 469.94C460.05 469.94 461.52 470.5 462.89 471.64C464.25 472.78 465.31 474.33 466.05 476.3C466.8 478.29 467.18 480.56 467.18 483.13ZM463.84 483.13C463.84 479.32 463.38 476.37 462.46 474.25C461.53 472.14 460.19 471.09 458.46 471.09C456.73 471.09 455.39 472.15 454.45 474.29C453.5 476.42 453.04 479.37 453.04 483.13C453.04 486.92 453.51 489.87 454.46 491.99C455.41 494.11 456.75 495.16 458.46 495.16C460.18 495.16 461.51 494.13 462.45 492.04C463.37 489.96 463.84 486.99 463.84 483.13Z" />
					</g>
				</g>
			</g>
		</g>
	</g>
</svg>